<svg width="100" height="35" xmlns="http://www.w3.org/2000/svg"><defs><linearGradient x1="-5.713%" y1="42.506%" x2="109.28%" y2="57.661%" id="a"><stop stop-color="#16698F" offset="0%"/><stop stop-color="#60C3FF" offset="100%"/></linearGradient></defs><path d="M47.903 170c2.06 0 7.578-.444 7.544-1.417-.023-.648-.023-4.034 0-10.158 6.282-.11 10.038-.234 11.27-.373 1.845-.208 2.524-3.24 2.524-4.722 0-1.482-.287-4.286-1.885-4.286-1.6 0-7.184-.125-11.91.07v-3.543l13.242-.178c.533 0 1.468-.643 1.806-1.93.337-1.285.506-2.048.506-4.506 0-2.46-.5-3.151-1.62-3.689-.745-.358-7.336-.358-19.771 0-2.559 0-4.3.18-5.223.538-.924.358-1.386.96-1.386 1.807v30.97c0 .489.302.847.906 1.075.604.228 1.936.342 3.997.342zm53.352 0c1.465 0 1.94-.59 2.263-1.768.322-1.179.483-1.798.483-4.09 0-2.291-.876-3.437-1.628-3.437-2.363 0-8.685-.08-15.33-.031v-3.313l12.162-.026c.644 0 1.654-.532 2.03-1.596.376-1.064.564-2.235.564-4.297 0-2.063-.983-3.094-1.95-3.094-1.611 0-7.626-.223-12.806-.152v-3.736c6.889-.13 11.875-.032 14.202-.032.537 0 1.467-.597 1.79-1.792.322-1.195.483-1.814.483-4.09 0-2.275-.554-3.144-1.628-3.412-.716-.179-7.913-.179-21.59 0-2.184 0-3.697.18-4.538.54-.841.36-1.262.966-1.262 1.817v31.085c0 .49.304.85.913 1.08.609.23 1.79.344 3.545.344h22.297zm25.633-35l.08.001c1.031.017 2.247.073 3.646.17 1.4.098 2.51.26 3.333.487.822.227 4.053 1.842 5.803 4.342 1.75 2.5 2.25 6.75 1.25 10.25s-3 5.5-3.035 6.178c-.036.68 5.035 9.6 5.035 11.188 0 1.59-1.538 2.384-8.43 2.384-1.995 0-3.377-.081-4.146-.243-.77-.163-1.26-.52-1.47-1.07l-3.411-9.52-4.232-.05c.014 2.632.022 4.719.024 6.261v.903c-.002 1.313-.01 2.083-.024 2.308-.048.748-1.067.762-3.201 1.022-2.135.26-3.287.389-4.998.389-1.71 0-3.534-.114-4.146-.34-.612-.228-.918-.584-.918-1.07-.025-7.72-.04-14.045-.045-18.974l-.001-.787v-5.982-.804c.006-3.194.021-4.992.046-5.394.089-1.478 5.29-1.576 7.922-1.583h.705c2.102-.004 7.12-.055 9.324-.065h.889zm.437 7.876h-6.502v8h6.135c2.03 0 3.044-1.379 3.044-4.137 0-1.41-.271-2.407-.814-2.989-.542-.582-1.163-.874-1.863-.874z" transform="translate(-43 -135)" fill="url(#a)" fill-rule="nonzero"/></svg>